<?xml version="1.0" standalone="no"?>
<!DOCTYPE svg PUBLIC "-//W3C//DTD SVG 20010904//EN"
 "http://www.w3.org/TR/2001/REC-SVG-20010904/DTD/svg10.dtd">
<svg version="1.0" xmlns="http://www.w3.org/2000/svg"
 width="145.000000pt" height="137.000000pt" viewBox="0 0 145.000000 137.000000"
 preserveAspectRatio="xMidYMid meet">

<g transform="translate(0.000000,137.000000) scale(0.100000,-0.100000)"
fill="#000000" stroke="none">
<path d="M685 1300 c-111 -15 -248 -81 -329 -158 -58 -55 -133 -176 -157 -251
-46 -148 -33 -308 37 -451 50 -101 170 -222 267 -268 239 -114 501 -70 687
117 205 206 234 511 73 754 -123 184 -354 287 -578 257z m220 -40 c300 -77
484 -371 420 -672 -43 -207 -211 -380 -420 -433 -185 -47 -398 11 -532 145
-110 109 -161 224 -170 380 -10 169 42 304 162 426 91 91 182 139 320 168 51
10 149 4 220 -14z"/>
<path d="M690 1183 c0 -13 -3 -14 -12 -5 -7 7 -16 12 -21 12 -14 0 -3 -63 12
-68 9 -3 11 2 7 19 -6 22 -6 23 7 7 28 -35 49 -10 31 36 -8 21 -24 20 -24 -1z"/>
<path d="M765 1180 c-8 -25 10 -50 36 -50 26 0 24 16 -3 23 -18 5 -19 8 -9 21
8 9 17 13 22 10 5 -3 9 0 9 5 0 21 -48 12 -55 -9z"/>
<path d="M870 1164 c-13 -32 -13 -44 0 -44 6 0 10 5 10 10 0 6 7 10 15 10 9 0
15 -6 13 -14 -6 -31 16 -19 24 13 9 31 0 60 -9 34 -3 -7 -12 -13 -20 -13 -9 0
-13 6 -9 15 3 8 1 15 -5 15 -5 0 -14 -12 -19 -26z"/>
<path d="M541 1141 c-21 -38 12 -71 50 -50 31 16 22 63 -13 67 -18 2 -30 -3
-37 -17z m49 -14 c0 -8 -3 -17 -7 -20 -9 -9 -34 13 -27 24 8 14 34 11 34 -4z"/>
<path d="M987 1120 c-29 -23 -36 -43 -13 -38 8 2 21 -6 29 -16 13 -18 15 -17
21 19 10 49 -3 61 -37 35z"/>
<path d="M444 1079 c-14 -15 -16 -24 -8 -37 16 -25 47 -26 69 -1 20 21 20 21
-4 40 -29 24 -34 24 -57 -2z m36 -19 c0 -21 -15 -27 -25 -10 -7 12 2 30 16 30
5 0 9 -9 9 -20z"/>
<path d="M1074 1065 c-3 -8 -3 -19 1 -24 4 -7 0 -8 -11 -4 -12 4 -15 2 -12 -8
3 -8 13 -14 24 -14 14 0 18 6 16 25 -1 19 0 21 7 10 12 -18 26 -7 18 15 -8 19
-36 20 -43 0z"/>
<path d="M673 1046 c-100 -33 -185 -106 -226 -194 -16 -37 -21 -67 -21 -142
-1 -83 2 -102 25 -150 59 -122 166 -192 304 -198 104 -5 174 20 250 89 81 74
109 140 110 254 0 77 -4 98 -26 146 -58 124 -169 199 -302 205 -43 3 -89 -2
-114 -10z m243 -38 c67 -35 120 -90 155 -163 24 -49 29 -73 29 -132 0 -139
-65 -245 -186 -304 -57 -28 -76 -33 -142 -33 -97 0 -183 36 -241 99 -168 183
-107 452 124 548 62 26 195 18 261 -15z"/>
<path d="M691 1015 c-97 -27 -172 -91 -213 -180 -33 -72 -32 -190 2 -260 31
-64 92 -124 155 -156 73 -35 188 -34 266 2 118 56 184 159 183 290 0 63 -5 87
-28 132 -66 136 -225 211 -365 172z m58 -101 c12 -15 21 -38 21 -52 0 -25 -1
-25 -17 -9 -16 16 -18 16 -29 -5 l-11 -21 -12 22 c-9 17 -9 30 -1 56 14 42 22
43 49 9z m181 -4 c0 -18 -30 -84 -47 -102 -9 -10 -24 -18 -34 -18 -16 0 -17 3
-7 25 14 31 4 43 -23 26 -25 -15 -33 -9 -24 18 12 38 135 84 135 51z m-272
-68 c36 -18 83 -84 70 -97 -4 -4 -17 0 -30 9 -12 9 -31 16 -41 16 -14 0 -17
-5 -11 -22 3 -13 13 -31 22 -40 14 -16 13 -18 -6 -18 -11 0 -34 11 -51 25 -29
25 -42 54 -56 124 l-7 34 37 -6 c20 -3 53 -14 73 -25z m111 -133 c-22 -64 -25
-129 -6 -129 7 0 22 7 33 15 38 29 38 14 0 -18 -42 -36 -42 -34 -11 -110 7
-16 4 -18 -16 -15 -28 4 -36 31 -38 124 0 34 -8 79 -17 100 l-16 39 21 -19
c20 -18 21 -18 31 10 6 16 9 44 5 62 -6 33 -6 33 13 14 19 -19 19 -21 1 -73z
m251 49 c-1 -33 -37 -108 -67 -140 -26 -27 -89 -55 -100 -45 -2 3 4 18 15 34
11 15 23 38 27 51 8 28 -16 30 -68 3 -28 -14 -37 -16 -37 -5 0 63 90 120 198
123 27 1 32 -3 32 -21z"/>
<path d="M380 995 c7 -8 9 -16 4 -17 -5 0 -13 -2 -19 -3 -5 -2 -14 -3 -19 -4
-9 -1 52 -51 62 -51 2 0 1 12 -2 26 -6 21 -4 25 8 21 26 -10 27 10 1 27 -32
21 -52 22 -35 1z"/>
<path d="M1127 989 c-15 -11 -25 -25 -21 -30 6 -10 64 27 64 42 0 14 -12 10
-43 -12z"/>
<path d="M1154 926 c-11 -29 1 -61 24 -64 15 -2 22 2 22 13 0 11 -5 15 -15 11
-10 -4 -15 1 -15 14 0 25 18 26 36 3 12 -17 13 -17 14 3 0 32 -55 49 -66 20z"/>
<path d="M306 895 c-6 -17 48 -50 64 -40 16 10 12 35 -5 29 -8 -4 -15 -1 -15
6 0 6 -4 8 -10 5 -5 -3 -10 -1 -10 4 0 16 -17 13 -24 -4z"/>
<path d="M287 814 c-12 -12 -8 -54 6 -54 6 0 22 -3 35 -6 22 -6 23 -4 20 27
-2 28 -8 35 -28 37 -14 2 -29 0 -33 -4z m43 -24 c0 -5 -7 -10 -15 -10 -8 0
-15 5 -15 10 0 6 7 10 15 10 8 0 15 -4 15 -10z"/>
<path d="M1180 810 c0 -5 5 -10 10 -10 6 0 8 -11 4 -27 l-7 -27 34 22 c42 26
46 38 17 46 -34 9 -58 7 -58 -4z"/>
<path d="M283 654 c-14 -6 -6 -34 15 -51 21 -17 52 2 52 32 0 21 -5 25 -27 24
-16 0 -33 -3 -40 -5z m47 -24 c0 -5 -7 -10 -15 -10 -8 0 -15 5 -15 10 0 6 7
10 15 10 8 0 15 -4 15 -10z"/>
<path d="M1196 637 c-17 -13 -17 -14 5 -28 53 -34 52 -34 45 -5 -4 15 -2 26 4
26 5 0 10 5 10 10 0 14 -43 12 -64 -3z"/>
<path d="M332 553 c-24 -10 -32 -18 -28 -29 3 -9 6 -18 6 -20 0 -2 5 -4 10 -4
6 0 10 7 10 16 0 8 5 12 10 9 6 -3 10 -1 10 6 0 8 4 8 15 -1 12 -10 15 -10 15
1 0 30 -14 36 -48 22z"/>
<path d="M1154 536 c-11 -29 1 -51 29 -54 21 -3 29 2 39 23 10 22 9 28 -3 36
-20 13 -29 11 -29 -6 0 -8 5 -15 11 -15 5 0 7 -4 4 -10 -3 -5 -13 -10 -22 -10
-11 0 -14 6 -9 25 7 27 -11 36 -20 11z"/>
<path d="M372 474 c-24 -17 -30 -39 -8 -31 20 8 28 -4 14 -20 -18 -22 -1 -26
31 -7 35 21 41 39 10 31 -18 -5 -20 -2 -15 19 7 28 -1 30 -32 8z"/>
<path d="M1110 451 c0 -5 14 -19 30 -31 35 -25 41 -8 8 21 -25 20 -38 24 -38
10z"/>
<path d="M1054 395 c-7 -18 3 -35 22 -35 9 0 12 -5 8 -11 -4 -7 1 -10 12 -7
10 2 20 11 22 21 3 13 -3 17 -23 17 -23 0 -26 2 -15 15 10 12 9 15 -4 15 -9 0
-19 -7 -22 -15z"/>
<path d="M442 388 c-19 -19 -14 -46 13 -64 24 -16 27 -16 40 2 26 34 12 74
-25 74 -9 0 -21 -5 -28 -12z m46 -26 c2 -7 -6 -12 -17 -12 -21 0 -27 11 -14
24 9 9 26 2 31 -12z"/>
<path d="M980 318 c0 -47 15 -67 29 -40 7 13 17 19 26 16 26 -10 16 11 -15 34
-38 29 -40 28 -40 -10z"/>
<path d="M540 315 c-15 -19 -4 -52 21 -60 38 -12 65 35 37 63 -16 16 -43 15
-58 -3z m50 -19 c0 -8 -5 -18 -11 -22 -14 -8 -33 11 -25 25 10 16 36 13 36 -3z"/>
<path d="M906 296 c4 -10 1 -16 -9 -16 -8 0 -17 6 -20 13 -2 6 -8 9 -12 5 -10
-9 15 -79 26 -72 5 3 7 9 4 14 -3 5 0 12 6 16 6 3 15 0 20 -7 4 -7 10 -11 13
-8 9 8 -9 62 -22 67 -7 2 -10 -2 -6 -12z"/>
<path d="M656 284 c-3 -9 -6 -28 -6 -42 1 -24 2 -25 13 -10 12 15 14 15 27 -5
13 -21 13 -21 21 -2 11 29 11 65 -1 65 -5 0 -10 -8 -11 -17 0 -14 -3 -13 -11
5 -13 26 -23 28 -32 6z"/>
<path d="M778 279 c-33 -19 -15 -69 24 -69 24 0 23 16 -2 23 -11 3 -20 10 -20
17 0 7 9 14 20 17 22 6 28 23 8 23 -7 0 -21 -5 -30 -11z"/>
</g>
</svg>
